<svg width="199" height="53" viewBox="0 0 199 53" fill="none" xmlns="http://www.w3.org/2000/svg">
<path d="M19.21 13.85C21.87 13.85 24.18 14.13 26.14 14.69C28.1467 15.25 29.6867 16.0433 30.76 17.07C31.88 18.05 32.44 19.24 32.44 20.64C32.44 21.5733 32.16 22.46 31.6 23.3C31.04 24.0933 30.2233 24.49 29.15 24.49C28.4033 24.49 27.7733 24.3967 27.26 24.21C26.7933 23.9767 26.3733 23.6967 26 23.37C25.6267 23.0433 25.1833 22.74 24.67 22.46C24.2033 22.18 23.48 21.97 22.5 21.83C21.5667 21.6433 20.8667 21.55 20.4 21.55C18.02 21.55 15.99 22.0633 14.31 23.09C12.6767 24.1167 11.4167 25.5167 10.53 27.29C9.64333 29.0167 9.2 31.0233 9.2 33.31C9.2 35.55 9.64333 37.5567 10.53 39.33C11.4633 41.0567 12.7233 42.4333 14.31 43.46C15.9433 44.4867 17.81 45 19.91 45C21.0767 45 22.08 44.93 22.92 44.79C23.76 44.65 24.46 44.44 25.02 44.16C25.6733 43.7867 26.2567 43.39 26.77 42.97C27.2833 42.55 28.0533 42.34 29.08 42.34C30.2933 42.34 31.2267 42.7367 31.88 43.53C32.5333 44.2767 32.86 45.21 32.86 46.33C32.86 47.4967 32.2067 48.57 30.9 49.55C29.5933 50.4833 27.8667 51.2533 25.72 51.86C23.62 52.42 21.3333 52.7 18.86 52.7C15.1733 52.7 11.9767 51.86 9.27 50.18C6.56333 48.4533 4.46333 46.12 2.97 43.18C1.52333 40.24 0.8 36.95 0.8 33.31C0.8 29.4833 1.57 26.1233 3.11 23.23C4.69667 20.29 6.86667 18.0033 9.62 16.37C12.42 14.69 15.6167 13.85 19.21 13.85ZM58.5872 13.85C61.9472 13.85 64.4905 14.5733 66.2172 16.02C67.9905 17.4667 69.2039 19.4033 69.8572 21.83C70.5105 24.21 70.8372 26.87 70.8372 29.81V47.73C70.8372 48.9433 70.4405 49.97 69.6472 50.81C68.8539 51.6033 67.8505 52 66.6372 52C65.4239 52 64.4205 51.6033 63.6272 50.81C62.8339 49.97 62.4372 48.9433 62.4372 47.73V29.81C62.4372 28.27 62.2505 26.8933 61.8772 25.68C61.5039 24.42 60.8272 23.4167 59.8472 22.67C58.8672 21.9233 57.4672 21.55 55.6472 21.55C53.8739 21.55 52.3572 21.9233 51.0972 22.67C49.8372 23.4167 48.8805 24.42 48.2272 25.68C47.6205 26.8933 47.3172 28.27 47.3172 29.81V47.73C47.3172 48.9433 46.9205 49.97 46.1272 50.81C45.3339 51.6033 44.3305 52 43.1172 52C41.9039 52 40.9005 51.6033 40.1072 50.81C39.3139 49.97 38.9172 48.9433 38.9172 47.73V4.47C38.9172 3.25666 39.3139 2.25333 40.1072 1.46C40.9005 0.619998 41.9039 0.199999 43.1172 0.199999C44.3305 0.199999 45.3339 0.619998 46.1272 1.46C46.9205 2.25333 47.3172 3.25666 47.3172 4.47V21.83L46.2672 21.62C46.6872 20.8267 47.2705 19.9867 48.0172 19.1C48.7639 18.1667 49.6739 17.3033 50.7472 16.51C51.8205 15.7167 53.0105 15.0867 54.3172 14.62C55.6239 14.1067 57.0472 13.85 58.5872 13.85ZM116.263 33.31C116.263 37.1367 115.399 40.52 113.673 43.46C111.993 46.3533 109.706 48.6167 106.813 50.25C103.966 51.8833 100.769 52.7 97.2228 52.7C93.6761 52.7 90.4561 51.8833 87.5628 50.25C84.7161 48.6167 82.4295 46.3533 80.7028 43.46C79.0228 40.52 78.1828 37.1367 78.1828 33.31C78.1828 29.4833 79.0228 26.1233 80.7028 23.23C82.4295 20.29 84.7161 18.0033 87.5628 16.37C90.4561 14.69 93.6761 13.85 97.2228 13.85C100.769 13.85 103.966 14.69 106.813 16.37C109.706 18.0033 111.993 20.29 113.673 23.23C115.399 26.1233 116.263 29.4833 116.263 33.31ZM107.863 33.31C107.863 30.93 107.373 28.8767 106.393 27.15C105.459 25.3767 104.176 24 102.543 23.02C100.956 22.04 99.1828 21.55 97.2228 21.55C95.2628 21.55 93.4661 22.04 91.8328 23.02C90.2461 24 88.9628 25.3767 87.9828 27.15C87.0495 28.8767 86.5828 30.93 86.5828 33.31C86.5828 35.6433 87.0495 37.6967 87.9828 39.47C88.9628 41.1967 90.2461 42.55 91.8328 43.53C93.4661 44.51 95.2628 45 97.2228 45C99.1828 45 100.956 44.51 102.543 43.53C104.176 42.55 105.459 41.1967 106.393 39.47C107.373 37.6967 107.863 35.6433 107.863 33.31ZM128.514 52C127.301 52 126.298 51.6033 125.504 50.81C124.711 49.97 124.314 48.9433 124.314 47.73V4.47C124.314 3.25666 124.711 2.25333 125.504 1.46C126.298 0.619998 127.301 0.199999 128.514 0.199999C129.728 0.199999 130.731 0.619998 131.524 1.46C132.318 2.25333 132.714 3.25666 132.714 4.47V47.73C132.714 48.9433 132.318 49.97 131.524 50.81C130.731 51.6033 129.728 52 128.514 52ZM150.774 14.55C151.848 14.55 152.781 14.9933 153.574 15.88C154.368 16.7667 154.764 17.63 154.764 18.47C154.764 19.59 154.204 20.64 153.084 21.62L132.014 41.01L131.664 31.35L147.694 15.88C148.581 14.9933 149.608 14.55 150.774 14.55ZM151.824 51.93C150.611 51.93 149.584 51.4633 148.744 50.53L135.794 36.81L142.164 30.93L154.764 44.65C155.651 45.5833 156.094 46.6333 156.094 47.8C156.094 49.0133 155.604 50.0167 154.624 50.81C153.691 51.5567 152.758 51.93 151.824 51.93ZM198.226 33.31C198.226 37.1367 197.362 40.52 195.636 43.46C193.956 46.3533 191.669 48.6167 188.776 50.25C185.929 51.8833 182.732 52.7 179.186 52.7C175.639 52.7 172.419 51.8833 169.526 50.25C166.679 48.6167 164.392 46.3533 162.666 43.46C160.986 40.52 160.146 37.1367 160.146 33.31C160.146 29.4833 160.986 26.1233 162.666 23.23C164.392 20.29 166.679 18.0033 169.526 16.37C172.419 14.69 175.639 13.85 179.186 13.85C182.732 13.85 185.929 14.69 188.776 16.37C191.669 18.0033 193.956 20.29 195.636 23.23C197.362 26.1233 198.226 29.4833 198.226 33.31ZM189.826 33.31C189.826 30.93 189.336 28.8767 188.356 27.15C187.422 25.3767 186.139 24 184.506 23.02C182.919 22.04 181.146 21.55 179.186 21.55C177.226 21.55 175.429 22.04 173.796 23.02C172.209 24 170.926 25.3767 169.946 27.15C169.012 28.8767 168.546 30.93 168.546 33.31C168.546 35.6433 169.012 37.6967 169.946 39.47C170.926 41.1967 172.209 42.55 173.796 43.53C175.429 44.51 177.226 45 179.186 45C181.146 45 182.919 44.51 184.506 43.53C186.139 42.55 187.422 41.1967 188.356 39.47C189.336 37.6967 189.826 35.6433 189.826 33.31Z" fill="black"/>
</svg>
  