<svg width="206" height="52" viewBox="0 0 206 52" fill="none" xmlns="http://www.w3.org/2000/svg">
<path d="M19.4773 51.7457C15.5663 51.7457 12.2022 50.9171 9.38494 49.2599C6.58428 47.5862 4.42992 45.2661 2.92188 42.2997C1.4304 39.3333 0.684659 35.9195 0.684659 32.0582C0.684659 28.1473 1.43868 24.7169 2.94673 21.767C4.47135 18.8007 6.634 16.4889 9.43466 14.8317C12.2353 13.1579 15.5663 12.321 19.4276 12.321C22.7585 12.321 25.6752 12.9259 28.1776 14.1357C30.6799 15.3454 32.6603 17.044 34.1186 19.2315C35.5769 21.419 36.3807 23.9877 36.5298 26.9375H26.5369C26.2552 25.0317 25.5095 23.4988 24.2997 22.3388C23.1065 21.1622 21.5405 20.5739 19.6016 20.5739C17.9609 20.5739 16.5275 21.0213 15.3011 21.9162C14.0914 22.7945 13.1468 24.0788 12.4673 25.7692C11.7879 27.4595 11.4482 29.5062 11.4482 31.9091C11.4482 34.3452 11.7796 36.4167 12.4425 38.1236C13.1219 39.8305 14.0748 41.1314 15.3011 42.0263C16.5275 42.9212 17.9609 43.3686 19.6016 43.3686C20.8113 43.3686 21.8968 43.12 22.858 42.6229C23.8357 42.1257 24.6394 41.4048 25.2692 40.4602C25.9155 39.4991 26.3381 38.3473 26.5369 37.005H36.5298C36.3641 39.9216 35.5687 42.4903 34.1435 44.7109C32.7349 46.915 30.7876 48.6385 28.3018 49.8814C25.8161 51.1243 22.8745 51.7457 19.4773 51.7457ZM53.8993 28.9261V51H43.3098V0.0909076H53.601V19.5547H54.0485C54.9102 17.3009 56.3023 15.536 58.2246 14.2599C60.147 12.9673 62.5582 12.321 65.4583 12.321C68.1098 12.321 70.4216 12.901 72.3936 14.0611C74.3823 15.2045 75.9235 16.8535 77.0172 19.0078C78.1275 21.1456 78.6744 23.706 78.6578 26.6889V51H68.0684V28.5781C68.0849 26.2249 67.4883 24.3937 66.2786 23.0845C65.0854 21.7753 63.4116 21.1207 61.2573 21.1207C59.8155 21.1207 58.5395 21.4273 57.4292 22.0405C56.3354 22.6536 55.4737 23.5485 54.8439 24.7251C54.2308 25.8852 53.9159 27.2855 53.8993 28.9261ZM104.243 51.7457C100.382 51.7457 97.0424 50.9254 94.2251 49.2848C91.4245 47.6276 89.2618 45.3241 87.7372 42.3743C86.2126 39.4079 85.4503 35.9692 85.4503 32.0582C85.4503 28.1141 86.2126 24.6671 87.7372 21.7173C89.2618 18.7509 91.4245 16.4474 94.2251 14.8068C97.0424 13.1496 100.382 12.321 104.243 12.321C108.104 12.321 111.435 13.1496 114.236 14.8068C117.053 16.4474 119.224 18.7509 120.749 21.7173C122.273 24.6671 123.036 28.1141 123.036 32.0582C123.036 35.9692 122.273 39.4079 120.749 42.3743C119.224 45.3241 117.053 47.6276 114.236 49.2848C111.435 50.9254 108.104 51.7457 104.243 51.7457ZM104.293 43.5426C106.049 43.5426 107.516 43.0455 108.692 42.0511C109.869 41.0402 110.756 39.6648 111.352 37.9247C111.965 36.1847 112.272 34.2043 112.272 31.9837C112.272 29.763 111.965 27.7827 111.352 26.0426C110.756 24.3026 109.869 22.9271 108.692 21.9162C107.516 20.9053 106.049 20.3999 104.293 20.3999C102.519 20.3999 101.028 20.9053 99.8182 21.9162C98.625 22.9271 97.7218 24.3026 97.1087 26.0426C96.5121 27.7827 96.2138 29.763 96.2138 31.9837C96.2138 34.2043 96.5121 36.1847 97.1087 37.9247C97.7218 39.6648 98.625 41.0402 99.8182 42.0511C101.028 43.0455 102.519 43.5426 104.293 43.5426ZM139.516 40.0128L139.541 27.3104H141.082L153.312 12.8182H165.468L149.037 32.0085H146.526L139.516 40.0128ZM129.921 51V0.0909076H140.511V51H129.921ZM153.785 51L142.549 34.37L149.609 26.8878L166.189 51H153.785ZM186.343 51.7457C182.481 51.7457 179.142 50.9254 176.325 49.2848C173.524 47.6276 171.361 45.3241 169.837 42.3743C168.312 39.4079 167.55 35.9692 167.55 32.0582C167.55 28.1141 168.312 24.6671 169.837 21.7173C171.361 18.7509 173.524 16.4474 176.325 14.8068C179.142 13.1496 182.481 12.321 186.343 12.321C190.204 12.321 193.535 13.1496 196.335 14.8068C199.153 16.4474 201.324 18.7509 202.848 21.7173C204.373 24.6671 205.135 28.1141 205.135 32.0582C205.135 35.9692 204.373 39.4079 202.848 42.3743C201.324 45.3241 199.153 47.6276 196.335 49.2848C193.535 50.9254 190.204 51.7457 186.343 51.7457ZM186.392 43.5426C188.149 43.5426 189.615 43.0455 190.792 42.0511C191.969 41.0402 192.855 39.6648 193.452 37.9247C194.065 36.1847 194.372 34.2043 194.372 31.9837C194.372 29.763 194.065 27.7827 193.452 26.0426C192.855 24.3026 191.969 22.9271 190.792 21.9162C189.615 20.9053 188.149 20.3999 186.392 20.3999C184.619 20.3999 183.128 20.9053 181.918 21.9162C180.725 22.9271 179.821 24.3026 179.208 26.0426C178.612 27.7827 178.313 29.763 178.313 31.9837C178.313 34.2043 178.612 36.1847 179.208 37.9247C179.821 39.6648 180.725 41.0402 181.918 42.0511C183.128 43.0455 184.619 43.5426 186.392 43.5426Z" fill="black"/>
</svg>
