<svg width="264" height="264" viewBox="0 0 264 264" fill="none" xmlns="http://www.w3.org/2000/svg">
<path d="M132 14.2714C197.013 14.2714 249.729 66.9808 249.729 132.007C249.729 197.033 197.013 249.729 132 249.729C66.9739 249.729 14.2712 197.026 14.2712 132.007C14.2712 66.9877 66.9739 14.2714 132 14.2714ZM132 0C59.2177 0 0 59.2178 0 132.007C0 204.789 59.2108 264 132 264C204.783 264 264 204.789 264 132.007C264 59.2246 204.783 0 132 0Z" fill="white"/>
<path d="M223 131.5C223 181.482 182.482 222 132.5 222C82.5182 222 42 181.482 42 131.5C42 81.5182 82.5182 41 132.5 41C182.482 41 223 81.5182 223 131.5ZM96.1803 131.5C96.1803 151.559 112.441 167.82 132.5 167.82C152.559 167.82 168.82 151.559 168.82 131.5C168.82 111.441 152.559 95.1803 132.5 95.1803C112.441 95.1803 96.1803 111.441 96.1803 131.5Z" fill="white"/>
</svg>
