<svg width="980" height="1259" viewBox="0 0 980 1259" fill="none" xmlns="http://www.w3.org/2000/svg">
<path d="M980 1048.21H0V1094H980V1048.21Z" fill="#563520"/>
<path d="M507.537 251.836C507.537 251.836 237.21 257.681 115.928 535.314L237.21 570.384C237.21 570.384 197.757 662.441 152.459 1048.21H812.934C812.934 1048.21 788.094 710.662 766.175 637.601L893.302 573.306C893.302 573.306 791.016 248.913 507.537 251.836Z" fill="#627AA4"/>
<path d="M787.819 774.629L710.374 542.72C699.391 543.509 688.157 544.047 676.766 544.392C666.934 482.798 631.07 277.74 629.381 268.114C628.545 263.344 623.998 260.171 619.234 260.989C614.464 261.825 611.273 266.366 612.109 271.136C612.518 273.468 648.657 480.097 659.061 544.754C561.422 545.882 455.074 532.994 388.541 523.058L450.462 263.52C451.584 258.809 448.679 254.08 443.968 252.958C439.281 251.859 434.529 254.741 433.406 259.452L371.146 520.392C340.835 515.629 322.265 512.069 322.265 512.069L292.608 595.237L210.51 670.706C195.115 742.587 174.477 860.689 152.459 1048.21H812.935C812.935 1048.21 801.777 896.624 787.819 774.629Z" fill="#5D7B6B"/>
<path d="M184.425 813.234C217.402 828.817 250.788 845.265 283.642 861.128C308.676 873.215 335.832 876.33 347.895 902.124C357.604 922.885 367.721 933.266 390.633 938.696C410.191 943.331 440.911 949.181 460.732 942.957C507.544 928.251 471.773 818.962 463.736 788.031C455.161 755.048 425.136 729.892 402.364 704.455C371.351 669.806 339.911 634.023 339.49 585.318C339.286 561.833 342.506 539.359 343.547 516.348C343.553 516.184 343.535 516.02 343.547 515.851C329.992 513.53 322.265 512.052 322.265 512.052L292.608 595.219L210.511 670.706C202.93 706.085 194.081 752.699 184.425 813.234Z" fill="#3A5343"/>
<path d="M787.819 774.629L712.396 548.769C712.747 552.802 713.197 556.771 713.934 560.564C719.176 587.621 722.9 614.671 725.314 641.973C730.685 702.707 730.516 760.104 717.218 820.243C704.33 878.522 683.446 931.185 652.913 982.579C640.574 1003.35 626.032 1025.33 612.384 1048.21H812.929C812.929 1048.21 801.777 896.624 787.819 774.629Z" fill="#3A5343"/>
<path d="M771.033 823.276C752.598 802.696 674.79 842.319 597.246 911.78C519.701 981.241 471.79 1054.24 490.225 1074.82C490.225 1074.82 643.257 1254.41 789.315 1126.19C935.368 997.975 771.033 823.276 771.033 823.276Z" fill="#D1532D"/>
<path d="M696.825 1074.64L321.336 857.849C311.119 851.951 307.583 838.765 313.486 828.548C319.384 818.331 332.57 814.801 342.787 820.698L718.276 1037.49C728.493 1043.38 732.023 1056.57 726.126 1066.79C720.228 1077 707.042 1080.53 696.825 1074.64Z" fill="#D69135"/>
<path d="M534.453 1087.7C564.683 1065.01 566.963 1020.45 567.746 985.923C568.079 971.269 569.231 952.986 586.187 949.824C602.266 946.82 603.529 959.527 614.272 966.056C636.599 948.398 639.855 930.863 639.796 903.322C639.756 883.829 628.837 844.259 643.438 825.328C647.05 820.64 654.181 820.459 657.922 825.041C661.715 829.694 664.725 834.943 668.279 839.39C668.197 816.291 702.255 734.69 727.377 778.896C741.375 803.526 728.616 840.051 741.153 865.47C759.442 844.388 772.517 865.383 773.575 886.717C775.048 916.421 752.048 948.708 735.601 971.603C701.671 1018.82 654.455 1068.8 599.332 1089.61C584.398 1095.25 546.991 1111.77 534.453 1087.7Z" fill="#FFDE84"/>
<path d="M609.824 843.634C606.322 832.523 611.244 819.418 616.054 809.383C621.332 798.365 625.319 782.385 609.806 780.088C587.712 776.815 586.771 810.113 592.856 824.638C594.627 828.87 596.468 833.516 599.414 837.076C601.477 839.572 605.674 842.401 609.824 843.634Z" fill="#FFDE84"/>
<path d="M771.033 823.276C789.467 843.856 741.557 916.853 664.012 986.314C586.468 1055.78 508.66 1095.4 490.225 1074.82C490.225 1074.82 643.257 1254.41 789.315 1126.19C935.368 997.975 771.033 823.276 771.033 823.276Z" fill="#29314A"/>
<path d="M771.032 823.276C780.729 834.101 772.055 859.421 750.4 891.095C752.814 895.56 754.597 900.265 755.251 905.169C757.092 919.068 749.079 931.395 744.438 943.927C738.652 959.544 740.113 970.171 746.268 985.332C750.546 995.865 752.323 1007.35 752.294 1018.77C752.241 1041.29 754.538 1061.5 745.554 1081.08C733.555 1107.26 739.937 1138.19 728.271 1163.18C748.465 1155.95 768.958 1144.07 789.315 1126.19C935.368 997.975 771.032 823.276 771.032 823.276Z" fill="#2D2327"/>
<path d="M932.025 694.589L764.539 715.753C764.539 715.753 777.918 888.295 773.809 928.508C768.543 934.885 760.313 939.771 755.953 946.651C747.103 960.602 748.74 977.979 741.884 992.679C738.441 1000.06 733.385 1005.49 727.453 1010.94C723.227 1014.83 715.892 1019.41 715.032 1024.83C714.132 1030.53 719.837 1039.06 724.367 1041.83C731.597 1046.26 741.218 1043.1 748.091 1039.44C757.402 1034.47 767.356 1028.14 775.673 1021.87C780.647 1018.12 785.68 1011.01 791.607 1009.6C795.347 1017.14 788.965 1034.18 787.346 1042.19C783.944 1059.03 776.953 1076.71 766.549 1090.59C755.783 1104.95 742.392 1117.28 731.842 1131.5C723.852 1142.27 720.363 1161.15 733.304 1170.26C745.49 1178.84 763.639 1158.78 773.505 1151.94C786.177 1143.15 796.154 1141.26 810.725 1135.89C834.865 1127.01 848.823 1109.53 858.952 1086.75C872.389 1056.54 899.44 1034.69 906.459 1001.78C909.317 988.372 912.795 970.352 912.041 953.799L913.035 953.963C913.035 953.963 948.098 766.189 932.025 694.589Z" fill="#FBCDB4"/>
<path d="M936.216 742.897C936.14 724.216 934.918 707.5 932.025 694.589L764.539 715.753C764.539 715.753 764.889 720.306 765.462 728.033C765.462 728.033 875.312 745.293 936.216 742.897Z" fill="#EEA584"/>
<path d="M544.799 864.091C541.876 826.099 459.317 759.245 459.317 759.245L291.772 607.651L104.238 650.009C104.238 650.009 108.598 748.625 355.821 865.821C351.642 907.84 366.733 918.303 372.374 942.267C378.219 967.108 410.366 961.994 410.366 961.994C415.48 996.332 452.741 977.336 452.741 977.336C462.239 998.524 488.542 986.104 488.542 986.104C488.542 986.104 490.003 1034.32 514.844 1022.63C539.685 1010.94 525.803 930.577 525.803 930.577H532.378C549.183 919.618 547.721 902.083 544.799 864.091Z" fill="#FBCDB4"/>
<path d="M291.772 607.651L104.238 650.009C104.238 650.009 104.951 665.715 121.481 692.023C183.413 647.175 290.709 609.089 292.62 608.417L291.772 607.651Z" fill="#EEA584"/>
<path d="M291.767 607.651C291.767 607.651 321.956 485.633 359.948 441.796" stroke="#526586" stroke-miterlimit="10" stroke-linecap="round" stroke-linejoin="round"/>
<path d="M104.238 650.015L301.504 605.459C301.504 605.459 323.423 568.929 310.272 552.855C297.121 536.782 167.071 462.259 91.0872 507.557C91.0872 507.557 72.0912 520.17 85.2423 571.582C98.3933 622.988 75.0136 624.432 104.238 650.015Z" fill="#526586"/>
<path d="M738.412 643.445C738.412 643.445 843.62 555.234 912.298 571.576C912.298 571.576 937.139 576.229 938.6 617.143C940.062 658.058 959.058 679.976 938.6 696.05C918.143 712.123 758.869 720.891 758.869 720.891L738.412 643.445Z" fill="#526586"/>
<path d="M714.939 897.46H695.943V906.712H714.939V897.46Z" fill="#5D7B6B"/>
<path d="M662.541 941.032L647.215 952.255L652.681 959.72L668.007 948.497L662.541 941.032Z" fill="#5D7B6B"/>
<path d="M711.866 829.788L694.01 823.307L690.853 832.004L708.709 838.485L711.866 829.788Z" fill="#5D7B6B"/>
<path d="M695.943 501.706C695.943 501.706 748.763 648.145 764.773 718.857" stroke="#526586" stroke-miterlimit="10" stroke-linecap="round" stroke-linejoin="round"/>
<path d="M485.619 235.032C464.186 243.063 449.521 260.855 439.286 281.721C429.935 300.793 418.42 322.039 422.909 343.04C431.168 346.366 443.203 343.145 451.999 343.163C465.115 343.192 478.167 343.239 491.096 343.958C512.547 345.144 535.535 346.88 556.723 351.018C574.292 354.455 591.19 359.71 608.181 364.9C618.281 367.986 640.287 380.068 647.991 368.582C657.962 353.73 642.029 322.115 635.372 308.643C627.241 292.183 621.782 274.076 607.603 261.375C576.262 233.307 527.311 232.676 488.629 234.406C488.156 235.622 488.986 235.429 485.619 235.032Z" fill="#526586"/>
<path d="M499.67 168.633L472.643 256.687C467.015 275.017 469.037 295.059 479.073 311.401C490.617 330.204 510.004 351.083 539.685 352.667C594.481 355.589 601.98 275.221 601.98 275.221V181.703L499.67 168.633Z" fill="#FBCDB4"/>
<path d="M499.67 168.633L491.347 195.76C491.347 195.76 495.848 256.95 601.98 260.685V181.697L499.67 168.633Z" fill="#EEA584"/>
<path d="M499.15 126.579C496.163 142.238 481.049 152.501 465.39 149.515C449.731 146.528 439.462 131.413 442.455 115.754C445.441 100.096 460.556 89.8264 476.215 92.819C491.867 95.8057 502.143 110.921 499.15 126.579Z" fill="#EEA584"/>
<path d="M696.387 164.226C693.4 179.885 678.285 190.154 662.627 187.162C646.974 184.175 636.704 169.06 639.691 153.402C642.678 137.743 657.793 127.474 673.452 130.466C689.104 133.453 699.374 148.568 696.387 164.226Z" fill="#EEA584"/>
<path d="M668.518 156.301C658.278 209.939 606.498 245.126 552.859 234.886C499.22 224.645 464.034 172.865 474.274 119.226C484.515 65.5875 536.295 30.4011 589.933 40.6414C643.572 50.8759 678.759 102.662 668.518 156.301Z" fill="#FBCDB4"/>
<path d="M589.934 40.6414C543.63 31.8039 498.776 56.8493 480.768 98.36C486.572 115.164 504.481 130.326 518.766 136.516C514.943 132.22 513.535 125.422 513.102 119.46C519.748 131.249 529.842 133.885 542.525 136.755C559.406 140.572 576.403 141.951 593.259 146.458C588.8 135.89 584.451 126.001 578.606 116.193C587.94 122.821 599.034 126.234 609.59 131.01C625.208 138.07 634.314 146.873 646.208 157.885C648.324 155.044 649.026 150.169 648.652 146.674C655.56 151.584 660.716 159.305 665.795 167.067C666.876 163.566 667.817 159.989 668.519 156.301C678.759 102.662 643.572 50.8758 589.934 40.6414Z" fill="#EEA584"/>
<path d="M670.436 62.1682C649.774 27.3968 609.122 8.26053 569.628 14.6549C571.978 9.37106 577.501 1.07712 570.055 0.802405C563.713 0.562763 556.279 10.8206 554.057 15.4381C551.153 8.4125 555.174 -5.65038 542.525 2.43314C536.885 6.03946 531.969 15.8355 529.965 20.2543C520.478 22.3877 492.411 32.0377 484.456 70.7076C483.673 74.0217 483.1 77.2189 482.738 79.9426C482.463 82.0234 482.387 84.1159 482.422 86.2025C482.416 86.3077 482.399 86.3954 482.393 86.5064L482.422 86.4889C482.837 105.134 494.924 123.709 508.432 135.867C503.02 123.236 503.867 109.173 507.351 96.0395C513.517 110.535 523.985 120.267 539.591 124.984C550.878 128.397 561.995 128.794 573.644 129.811C582.189 130.56 591.178 132.822 599.572 132.792C596.871 125.708 592.973 119.448 589.051 112.826C597.269 117.753 607.246 118.922 615.908 123.785C626.967 129.999 636.196 136.58 644.829 145.756C645.501 140.888 644.321 132.927 641.059 128.713C652.989 132.5 664.228 144.675 669.044 156.102C690.671 129.069 687.374 90.6797 670.436 62.1682Z" fill="#5B3322"/>
<path d="M536.464 154.524C535.593 159.083 531.192 162.07 526.633 161.205C522.074 160.334 519.087 155.932 519.952 151.379C520.823 146.82 525.224 143.833 529.783 144.698C534.342 145.569 537.329 149.965 536.464 154.524Z" fill="#2D2327"/>
<path d="M618.632 170.212C617.761 174.771 613.36 177.757 608.801 176.886C604.242 176.016 601.255 171.614 602.12 167.061C602.991 162.502 607.392 159.515 611.951 160.38C616.516 161.251 619.503 165.652 618.632 170.212Z" fill="#2D2327"/>
<path d="M550.177 185.286C550.177 185.286 563.386 199.214 579.36 190.856" stroke="#EEA584" stroke-miterlimit="10" stroke-linecap="round" stroke-linejoin="round"/>
<path d="M489.033 992.358L484.38 933.184" stroke="#EEA584" stroke-miterlimit="10" stroke-linecap="round" stroke-linejoin="round"/>
<path d="M452.741 977.336L446.897 927.655" stroke="#EEA584" stroke-miterlimit="10" stroke-linecap="round" stroke-linejoin="round"/>
<path d="M410.366 961.994L401.598 924.002" stroke="#EEA584" stroke-miterlimit="10" stroke-linecap="round" stroke-linejoin="round"/>
<path d="M525.803 930.577V880.895" stroke="#EEA584" stroke-miterlimit="10" stroke-linecap="round" stroke-linejoin="round"/>
<path d="M780.998 1147.36C780.998 1147.36 836.238 1089.86 843.217 1078.9" stroke="#EEA584" stroke-miterlimit="10" stroke-linecap="round" stroke-linejoin="round"/>
<path d="M130.172 891.855H93.6414L87.7965 820.985H136.017L130.172 891.855Z" fill="#D69135"/>
<path d="M136.262 925.346V871.66H140.272C144.767 871.66 148.437 867.984 148.437 863.489C148.437 858.994 144.761 855.324 140.272 855.324H84.2778C79.783 855.324 76.1125 859 76.1125 863.489C76.1125 867.978 79.7889 871.66 84.2778 871.66H87.5568V925.346C51.6105 935.873 25.3318 969.037 25.3318 1008.39V1216.98C25.3318 1236.35 41.0312 1252.05 60.4013 1252.05H163.418C182.788 1252.05 198.488 1236.35 198.488 1216.98V1008.39C198.488 969.037 172.209 935.873 136.262 925.346Z" stroke="#AEBDC6" stroke-miterlimit="10" stroke-linecap="round" stroke-linejoin="round"/>
<path d="M60.4013 1234.51C50.7338 1234.51 42.8666 1226.65 42.8666 1216.98V1052.27H180.953V1216.98C180.953 1226.65 173.086 1234.51 163.418 1234.51H60.4013Z" fill="#FFDE84"/>
<path d="M128.348 1052.27V1216.98C128.348 1226.65 120.481 1234.51 110.814 1234.51H163.418C173.085 1234.51 180.953 1226.65 180.953 1216.98V1052.27H128.348Z" fill="#EFB563"/>
<path d="M198.488 1027.75H103.139V1138.8H198.488V1027.75Z" fill="#AEBDC6"/>
<path d="M96.4936 975.232C96.4936 985.099 88.4977 993.094 78.6315 993.094C68.7653 993.094 60.7694 985.099 60.7694 975.232C60.7694 965.366 68.7653 957.37 78.6315 957.37C88.4919 957.37 96.4936 965.366 96.4936 975.232Z" fill="white"/>
<path d="M365.758 1186.89C364.758 1182.14 357.481 1178.67 354.465 1175.54C350.339 1171.26 357.148 1164.47 358.112 1159.38C359.264 1153.31 347.025 1152.52 342.372 1150.32C342.974 1146.44 343.839 1142.47 344.546 1138.55C344.874 1136.76 346.388 1132.69 345.68 1130.96C344.88 1129.01 340.56 1127.78 338.702 1126.88C335.779 1125.46 332.331 1124.2 329.73 1122.26C330.086 1119.62 331.01 1116.8 332.038 1114.31C333.529 1110.7 333.891 1110.48 330.343 1108.4C321.482 1103.2 312.61 1102.07 302.931 1100.05L302.785 1100.37C269.79 1102.3 243.757 1136.44 248.327 1168.7C254.441 1211.85 305.596 1222.52 340.163 1207.84C351.496 1203.02 360.842 1197.96 366.518 1187C366.272 1186.96 366.003 1186.93 365.758 1186.89Z" fill="#EFB563"/>
<path d="M302.925 1100.35C269.86 1102.18 243.745 1136.38 248.321 1168.7C254.435 1211.85 305.59 1222.52 340.157 1207.84C351.49 1203.02 360.836 1197.96 366.512 1187C356.698 1185.59 343.921 1184.12 334.458 1180.39C327.783 1177.76 327.947 1178.25 330.01 1170.71C332.214 1162.68 337.229 1154.84 337.568 1146.56C329.367 1145.79 312.668 1142.44 306.893 1136.73C311.528 1126.37 318.835 1116.98 323.85 1107C317.251 1104.78 309.804 1102.67 302.925 1100.35Z" fill="white"/>
<path d="M468.061 1127.8C463.467 1114.01 451.421 1106.29 439.585 1098.71C428.088 1091.35 414.598 1085.51 401.038 1084.93C402.183 1086.35 403.083 1087.71 403.884 1089.03C402.914 1089.41 401.92 1089.86 400.874 1090.35C395.257 1092.97 389.546 1095.61 383.918 1098C387.729 1103.28 391.978 1108.51 395.935 1113.87C392.866 1115.76 389.383 1117.45 385.7 1118.97C388.114 1120.09 392.428 1122.62 396.747 1125.7C393.533 1127.99 389.511 1129.99 387.074 1131.58C382.936 1134.29 376.138 1135.61 373.239 1139.77C375.945 1144.57 380.949 1147.73 385.245 1150.98C387.512 1152.7 390.002 1154.76 392.37 1156.93C389.833 1158.69 387.623 1160.29 386.291 1161.62C388.518 1162.46 391.353 1163.53 393.918 1164.86C389.02 1167.09 383.614 1168.79 379.452 1171.91C381.872 1174.65 386.484 1178.64 388.564 1182.35C386.712 1183.41 384.993 1184.59 383.777 1186.05C391.627 1184.53 405.591 1192.76 415.311 1193.36C432.255 1194.41 450.404 1190.77 462.97 1178.38C475.362 1166.16 473.111 1142.98 468.061 1127.8Z" fill="#EFB563"/>
<path d="M383.777 1186.05C391.627 1184.53 405.591 1192.76 415.311 1193.36C432.255 1194.41 450.404 1190.77 462.97 1178.38C475.367 1166.16 473.117 1142.98 468.061 1127.8C463.467 1114.01 451.421 1106.29 439.585 1098.71C428.088 1091.35 414.598 1085.51 401.037 1084.93C415.024 1102.3 402.078 1112.2 385.7 1118.96C391.674 1121.73 409.285 1133.1 409.758 1140.26C410.196 1146.98 391.551 1156.38 386.291 1161.61C392.738 1164.05 404.369 1168.35 399.477 1175.53C396.823 1179.42 387.723 1181.28 383.777 1186.05Z" fill="white"/>
<path d="M580.313 1172.03C580.313 1186.79 568.348 1198.75 553.59 1198.75C538.831 1198.75 526.867 1186.79 526.867 1172.03C526.867 1157.27 538.831 1145.31 553.59 1145.31C568.348 1145.31 580.313 1157.27 580.313 1172.03Z" fill="#D1532D"/>
<path d="M551.071 1151.15C546.786 1148.88 539.948 1150.01 538.609 1141.7C537.306 1133.59 542.368 1138.34 546.599 1140.38C546.073 1138.46 545.237 1133.4 548.335 1132.7C551.784 1131.93 553.046 1138.31 553.531 1140.79C553.029 1137.52 554.993 1129.78 558.874 1133.61C561.013 1135.72 559.441 1139.7 558.499 1142.02C557.114 1145.41 553.73 1148.34 551.071 1151.15Z" fill="#5D7B6B"/>
<path d="M438.31 1237.21C425.948 1245.27 409.39 1241.78 401.33 1229.42C393.27 1217.06 396.753 1200.5 409.115 1192.44C421.477 1184.38 438.036 1187.86 446.096 1200.23C454.156 1212.59 450.672 1229.14 438.31 1237.21Z" fill="#D1532D"/>
<path d="M439.824 1201.31C439.386 1196.47 434.704 1191.37 440.941 1185.7C447.013 1180.18 445.804 1187.02 446.406 1191.67C447.727 1190.17 451.514 1186.71 453.782 1188.93C456.313 1191.39 451.66 1195.94 449.848 1197.7C452.309 1195.49 459.866 1192.91 458.779 1198.26C458.177 1201.2 453.987 1202.06 451.532 1202.54C447.937 1203.24 443.629 1202 439.824 1201.31Z" fill="#5D7B6B"/>
<path d="M780.735 1224.85C784.704 1239.07 776.392 1253.81 762.177 1257.78C747.963 1261.74 733.222 1253.43 729.253 1239.22C725.284 1225 733.596 1210.26 747.811 1206.29C762.031 1202.32 776.772 1210.63 780.735 1224.85Z" fill="#D1532D"/>
<path d="M746.957 1212.6C742.217 1211.56 735.94 1214.49 732.415 1206.84C728.978 1199.38 735.139 1202.59 739.756 1203.42C738.728 1201.71 736.565 1197.06 739.365 1195.56C742.48 1193.89 745.414 1199.69 746.548 1201.96C745.186 1198.95 744.993 1190.96 749.763 1193.6C752.393 1195.07 751.949 1199.32 751.662 1201.8C751.242 1205.45 748.769 1209.18 746.957 1212.6Z" fill="#5D7B6B"/>
</svg>
