<svg width="266" height="85" viewBox="0 0 266 85" fill="none" xmlns="http://www.w3.org/2000/svg">
<g clip-path="url(#clip0_40_285)">
<path d="M30.5 29.5407C42.0743 29.5407 51.4593 38.9246 51.4593 50.5012C51.4593 62.0778 42.0743 71.4593 30.5 71.4593C18.9234 71.4593 9.54071 62.0766 9.54071 50.5012C9.54071 38.9258 18.9234 29.5407 30.5 29.5407ZM30.5 27C17.5425 27 7 37.5426 7 50.5012C7 63.4586 17.5413 74 30.5 74C43.4576 74 54 63.4586 54 50.5012C54 37.5438 43.4576 27 30.5 27Z" fill="black"/>
<path d="M46.7008 50.411C46.7008 59.3093 39.4873 66.5227 30.589 66.5227C21.6908 66.5227 14.4773 59.3093 14.4773 50.411C14.4773 41.5127 21.6908 34.2993 30.589 34.2993C39.4873 34.2993 46.7008 41.5127 46.7008 50.411ZM24.123 50.411C24.123 53.9821 27.0179 56.8771 30.589 56.8771C34.1601 56.8771 37.0551 53.9821 37.0551 50.411C37.0551 46.8399 34.1601 43.945 30.589 43.945C27.0179 43.945 24.123 46.8399 24.123 50.411Z" fill="black"/>
<path d="M77.21 31.85C79.87 31.85 82.18 32.13 84.14 32.69C86.1467 33.25 87.6867 34.0433 88.76 35.07C89.88 36.05 90.44 37.24 90.44 38.64C90.44 39.5733 90.16 40.46 89.6 41.3C89.04 42.0933 88.2233 42.49 87.15 42.49C86.4033 42.49 85.7733 42.3967 85.26 42.21C84.7933 41.9767 84.3733 41.6967 84 41.37C83.6267 41.0433 83.1833 40.74 82.67 40.46C82.2033 40.18 81.48 39.97 80.5 39.83C79.5667 39.6433 78.8667 39.55 78.4 39.55C76.02 39.55 73.99 40.0633 72.31 41.09C70.6767 42.1167 69.4167 43.5167 68.53 45.29C67.6433 47.0167 67.2 49.0233 67.2 51.31C67.2 53.55 67.6433 55.5567 68.53 57.33C69.4633 59.0567 70.7233 60.4333 72.31 61.46C73.9433 62.4867 75.81 63 77.91 63C79.0767 63 80.08 62.93 80.92 62.79C81.76 62.65 82.46 62.44 83.02 62.16C83.6733 61.7867 84.2567 61.39 84.77 60.97C85.2833 60.55 86.0533 60.34 87.08 60.34C88.2933 60.34 89.2267 60.7367 89.88 61.53C90.5333 62.2767 90.86 63.21 90.86 64.33C90.86 65.4967 90.2067 66.57 88.9 67.55C87.5933 68.4833 85.8667 69.2533 83.72 69.86C81.62 70.42 79.3333 70.7 76.86 70.7C73.1733 70.7 69.9767 69.86 67.27 68.18C64.5633 66.4533 62.4633 64.12 60.97 61.18C59.5233 58.24 58.8 54.95 58.8 51.31C58.8 47.4833 59.57 44.1233 61.11 41.23C62.6967 38.29 64.8667 36.0033 67.62 34.37C70.42 32.69 73.6167 31.85 77.21 31.85ZM116.587 31.85C119.947 31.85 122.491 32.5733 124.217 34.02C125.991 35.4667 127.204 37.4033 127.857 39.83C128.511 42.21 128.837 44.87 128.837 47.81V65.73C128.837 66.9433 128.441 67.97 127.647 68.81C126.854 69.6033 125.851 70 124.637 70C123.424 70 122.421 69.6033 121.627 68.81C120.834 67.97 120.437 66.9433 120.437 65.73V47.81C120.437 46.27 120.251 44.8933 119.877 43.68C119.504 42.42 118.827 41.4167 117.847 40.67C116.867 39.9233 115.467 39.55 113.647 39.55C111.874 39.55 110.357 39.9233 109.097 40.67C107.837 41.4167 106.881 42.42 106.227 43.68C105.621 44.8933 105.317 46.27 105.317 47.81V65.73C105.317 66.9433 104.921 67.97 104.127 68.81C103.334 69.6033 102.331 70 101.117 70C99.9039 70 98.9005 69.6033 98.1072 68.81C97.3139 67.97 96.9172 66.9433 96.9172 65.73V22.47C96.9172 21.2567 97.3139 20.2533 98.1072 19.46C98.9005 18.62 99.9039 18.2 101.117 18.2C102.331 18.2 103.334 18.62 104.127 19.46C104.921 20.2533 105.317 21.2567 105.317 22.47V39.83L104.267 39.62C104.687 38.8267 105.271 37.9867 106.017 37.1C106.764 36.1667 107.674 35.3033 108.747 34.51C109.821 33.7167 111.011 33.0867 112.317 32.62C113.624 32.1067 115.047 31.85 116.587 31.85ZM174.263 51.31C174.263 55.1367 173.399 58.52 171.673 61.46C169.993 64.3533 167.706 66.6167 164.813 68.25C161.966 69.8833 158.769 70.7 155.223 70.7C151.676 70.7 148.456 69.8833 145.563 68.25C142.716 66.6167 140.429 64.3533 138.703 61.46C137.023 58.52 136.183 55.1367 136.183 51.31C136.183 47.4833 137.023 44.1233 138.703 41.23C140.429 38.29 142.716 36.0033 145.563 34.37C148.456 32.69 151.676 31.85 155.223 31.85C158.769 31.85 161.966 32.69 164.813 34.37C167.706 36.0033 169.993 38.29 171.673 41.23C173.399 44.1233 174.263 47.4833 174.263 51.31ZM165.863 51.31C165.863 48.93 165.373 46.8767 164.393 45.15C163.459 43.3767 162.176 42 160.543 41.02C158.956 40.04 157.183 39.55 155.223 39.55C153.263 39.55 151.466 40.04 149.833 41.02C148.246 42 146.963 43.3767 145.983 45.15C145.049 46.8767 144.583 48.93 144.583 51.31C144.583 53.6433 145.049 55.6967 145.983 57.47C146.963 59.1967 148.246 60.55 149.833 61.53C151.466 62.51 153.263 63 155.223 63C157.183 63 158.956 62.51 160.543 61.53C162.176 60.55 163.459 59.1967 164.393 57.47C165.373 55.6967 165.863 53.6433 165.863 51.31ZM186.514 70C185.301 70 184.298 69.6033 183.504 68.81C182.711 67.97 182.314 66.9433 182.314 65.73V22.47C182.314 21.2567 182.711 20.2533 183.504 19.46C184.298 18.62 185.301 18.2 186.514 18.2C187.728 18.2 188.731 18.62 189.524 19.46C190.318 20.2533 190.714 21.2567 190.714 22.47V65.73C190.714 66.9433 190.318 67.97 189.524 68.81C188.731 69.6033 187.728 70 186.514 70ZM208.774 32.55C209.848 32.55 210.781 32.9933 211.574 33.88C212.368 34.7667 212.764 35.63 212.764 36.47C212.764 37.59 212.204 38.64 211.084 39.62L190.014 59.01L189.664 49.35L205.694 33.88C206.581 32.9933 207.608 32.55 208.774 32.55ZM209.824 69.93C208.611 69.93 207.584 69.4633 206.744 68.53L193.794 54.81L200.164 48.93L212.764 62.65C213.651 63.5833 214.094 64.6333 214.094 65.8C214.094 67.0133 213.604 68.0167 212.624 68.81C211.691 69.5567 210.758 69.93 209.824 69.93ZM256.226 51.31C256.226 55.1367 255.362 58.52 253.636 61.46C251.956 64.3533 249.669 66.6167 246.776 68.25C243.929 69.8833 240.732 70.7 237.186 70.7C233.639 70.7 230.419 69.8833 227.526 68.25C224.679 66.6167 222.392 64.3533 220.666 61.46C218.986 58.52 218.146 55.1367 218.146 51.31C218.146 47.4833 218.986 44.1233 220.666 41.23C222.392 38.29 224.679 36.0033 227.526 34.37C230.419 32.69 233.639 31.85 237.186 31.85C240.732 31.85 243.929 32.69 246.776 34.37C249.669 36.0033 251.956 38.29 253.636 41.23C255.362 44.1233 256.226 47.4833 256.226 51.31ZM247.826 51.31C247.826 48.93 247.336 46.8767 246.356 45.15C245.422 43.3767 244.139 42 242.506 41.02C240.919 40.04 239.146 39.55 237.186 39.55C235.226 39.55 233.429 40.04 231.796 41.02C230.209 42 228.926 43.3767 227.946 45.15C227.012 46.8767 226.546 48.93 226.546 51.31C226.546 53.6433 227.012 55.6967 227.946 57.47C228.926 59.1967 230.209 60.55 231.796 61.53C233.429 62.51 235.226 63 237.186 63C239.146 63 240.919 62.51 242.506 61.53C244.139 60.55 245.422 59.1967 246.356 57.47C247.336 55.6967 247.826 53.6433 247.826 51.31Z" fill="black"/>
</g>
<defs>
<clipPath id="clip0_40_285">
<rect width="266" height="85" fill="white"/>
</clipPath>
</defs>
</svg>
