<svg width="1673" height="1203" viewBox="0 0 1673 1203" fill="none" xmlns="http://www.w3.org/2000/svg">
<g clip-path="url(#clip0_41_2)">
<path d="M1633.95 1201.64H630.169C619.817 1201.63 609.891 1197.51 602.571 1190.19C595.25 1182.87 591.132 1172.94 591.121 1162.58V39.0591C591.132 28.7036 595.25 18.7755 602.571 11.453C609.891 4.13055 619.817 0.0116577 630.169 0H1633.95C1644.3 0.0116577 1654.23 4.13055 1661.55 11.453C1668.87 18.7755 1672.99 28.7036 1673 39.0591V1162.58C1672.99 1172.94 1668.87 1182.87 1661.55 1190.19C1654.23 1197.51 1644.3 1201.63 1633.95 1201.64ZM630.169 4.59519C621.035 4.60553 612.277 8.23985 605.818 14.7009C599.358 21.1619 595.725 29.9219 595.715 39.0591V1162.58C595.725 1171.72 599.358 1180.48 605.818 1186.94C612.277 1193.4 621.035 1197.04 630.169 1197.05H1633.95C1643.09 1197.04 1651.84 1193.4 1658.3 1186.94C1664.76 1180.48 1668.4 1171.72 1668.41 1162.58V39.0591C1668.4 29.9219 1664.76 21.1619 1658.3 14.7009C1651.84 8.23985 1643.09 4.60553 1633.95 4.59519H630.169Z" fill="#3F3D56"/>
<path d="M1670.7 95.5579H593.417V100.153H1670.7V95.5579Z" fill="#3F3D56"/>
<path d="M646.248 68.9279C656.397 68.9279 664.624 60.6986 664.624 50.5472C664.624 40.3957 656.397 32.1664 646.248 32.1664C636.1 32.1664 627.873 40.3957 627.873 50.5472C627.873 60.6986 636.1 68.9279 646.248 68.9279Z" fill="#FA5738"/>
<path d="M703.673 68.9279C713.821 68.9279 722.049 60.6986 722.049 50.5472C722.049 40.3957 713.821 32.1664 703.673 32.1664C693.524 32.1664 685.297 40.3957 685.297 50.5472C685.297 60.6986 693.524 68.9279 703.673 68.9279Z" fill="#FA5738"/>
<path d="M761.098 68.9279C771.246 68.9279 779.473 60.6986 779.473 50.5472C779.473 40.3957 771.246 32.1664 761.098 32.1664C750.949 32.1664 742.722 40.3957 742.722 50.5472C742.722 60.6986 750.949 68.9279 761.098 68.9279Z" fill="#FA5738"/>
<path d="M1490.39 264.224H773.731C765.811 264.224 758.216 261.077 752.616 255.475C747.016 249.874 743.87 242.277 743.87 234.355C743.87 226.433 747.016 218.836 752.616 213.234C758.216 207.633 765.811 204.486 773.731 204.486H1490.39C1498.31 204.486 1505.9 207.633 1511.5 213.234C1517.1 218.836 1520.25 226.433 1520.25 234.355C1520.25 242.277 1517.1 249.874 1511.5 255.475C1505.9 261.077 1498.31 264.224 1490.39 264.224ZM773.731 209.081C767.03 209.081 760.603 211.744 755.865 216.484C751.126 221.223 748.464 227.652 748.464 234.355C748.464 241.058 751.126 247.486 755.865 252.226C760.603 256.966 767.03 259.628 773.731 259.628H1490.39C1497.09 259.628 1503.52 256.966 1508.26 252.226C1512.99 247.486 1515.66 241.058 1515.66 234.355C1515.66 227.652 1512.99 221.223 1508.26 216.484C1503.52 211.744 1497.09 209.081 1490.39 209.081H773.731Z" fill="#3F3D56"/>
<path d="M1313.19 499.935H987.016C982.142 499.935 977.468 497.999 974.022 494.552C970.576 491.105 968.64 486.429 968.64 481.555C968.64 476.68 970.576 472.004 974.022 468.557C977.468 465.11 982.142 463.174 987.016 463.174H1313.19C1318.06 463.174 1322.73 465.11 1326.18 468.557C1329.63 472.004 1331.56 476.68 1331.56 481.555C1331.56 486.429 1329.63 491.105 1326.18 494.552C1322.73 497.999 1318.06 499.935 1313.19 499.935Z" fill="#CCCCCC"/>
<path d="M1501.54 561.971H987.016C982.142 561.971 977.468 560.034 974.022 556.587C970.576 553.14 968.64 548.465 968.64 543.59C968.64 538.715 970.576 534.04 974.022 530.593C977.468 527.146 982.142 525.209 987.016 525.209H1501.54C1506.41 525.209 1511.09 527.146 1514.53 530.593C1517.98 534.04 1519.92 538.715 1519.92 543.59C1519.92 548.465 1517.98 553.14 1514.53 556.587C1511.09 560.034 1506.41 561.971 1501.54 561.971Z" fill="#CCCCCC"/>
<path d="M864.796 565.417H766.026C760.241 565.41 754.694 563.109 750.603 559.017C746.512 554.925 744.211 549.377 744.205 543.59V481.555C744.211 475.768 746.512 470.22 750.603 466.128C754.694 462.036 760.241 459.734 766.026 459.727H864.796C870.582 459.734 876.128 462.036 880.219 466.128C884.31 470.22 886.611 475.768 886.618 481.555V543.59C886.611 549.377 884.31 554.925 880.219 559.017C876.128 563.109 870.582 565.41 864.796 565.417ZM766.026 464.323C761.459 464.328 757.08 466.145 753.85 469.375C750.62 472.606 748.804 476.986 748.799 481.555V543.59C748.804 548.158 750.62 552.538 753.85 555.769C757.08 558.999 761.459 560.817 766.026 560.822H864.796C869.364 560.817 873.743 558.999 876.972 555.769C880.202 552.538 882.019 548.158 882.024 543.59V481.555C882.019 476.986 880.202 472.606 876.972 469.375C873.743 466.145 869.364 464.328 864.796 464.323H766.026Z" fill="#CCCCCC"/>
<path d="M1313.19 718.207H987.016C982.142 718.207 977.468 716.271 974.022 712.824C970.576 709.376 968.64 704.701 968.64 699.826C968.64 694.951 970.576 690.276 974.022 686.829C977.468 683.382 982.142 681.446 987.016 681.446H1313.19C1318.06 681.446 1322.73 683.382 1326.18 686.829C1329.63 690.276 1331.56 694.951 1331.56 699.826C1331.56 704.701 1329.63 709.376 1326.18 712.824C1322.73 716.271 1318.06 718.207 1313.19 718.207Z" fill="#CCCCCC"/>
<path d="M1501.54 780.242H987.016C982.142 780.242 977.468 778.306 974.022 774.859C970.576 771.412 968.64 766.736 968.64 761.861C968.64 756.987 970.576 752.311 974.022 748.864C977.468 745.417 982.142 743.481 987.016 743.481H1501.54C1506.41 743.481 1511.09 745.417 1514.53 748.864C1517.98 752.311 1519.92 756.987 1519.92 761.861C1519.92 766.736 1517.98 771.412 1514.53 774.859C1511.09 778.306 1506.41 780.242 1501.54 780.242Z" fill="#CCCCCC"/>
<path d="M864.796 783.688H766.026C760.241 783.682 754.694 781.38 750.603 777.288C746.512 773.196 744.211 767.648 744.205 761.861V699.826C744.211 694.039 746.512 688.491 750.603 684.399C754.694 680.307 760.241 678.006 766.026 677.999H864.796C870.582 678.006 876.128 680.307 880.219 684.399C884.31 688.491 886.611 694.039 886.618 699.826V761.861C886.611 767.648 884.31 773.196 880.219 777.288C876.128 781.38 870.582 783.682 864.796 783.688ZM766.026 682.594C761.459 682.599 757.08 684.416 753.85 687.647C750.62 690.877 748.804 695.258 748.799 699.826V761.861C748.804 766.43 750.62 770.81 753.85 774.041C757.08 777.271 761.459 779.088 766.026 779.093H864.796C869.364 779.088 873.743 777.271 876.972 774.041C880.202 770.81 882.019 766.43 882.024 761.861V699.826C882.019 695.258 880.202 690.877 876.972 687.647C873.743 684.416 869.364 682.599 864.796 682.594H766.026Z" fill="#CCCCCC"/>
<path d="M1313.19 936.479H987.016C982.142 936.479 977.468 934.542 974.022 931.095C970.576 927.648 968.64 922.973 968.64 918.098C968.64 913.223 970.576 908.548 974.022 905.101C977.468 901.654 982.142 899.717 987.016 899.717H1313.19C1318.06 899.717 1322.73 901.654 1326.18 905.101C1329.63 908.548 1331.56 913.223 1331.56 918.098C1331.56 922.973 1329.63 927.648 1326.18 931.095C1322.73 934.542 1318.06 936.479 1313.19 936.479Z" fill="#F2F2F2"/>
<path d="M1501.54 998.514H987.016C982.142 998.514 977.468 996.577 974.022 993.13C970.576 989.683 968.64 985.008 968.64 980.133C968.64 975.258 970.576 970.583 974.022 967.136C977.468 963.689 982.142 961.752 987.016 961.752H1501.54C1506.41 961.752 1511.09 963.689 1514.53 967.136C1517.98 970.583 1519.92 975.258 1519.92 980.133C1519.92 985.008 1517.98 989.683 1514.53 993.13C1511.09 996.577 1506.41 998.514 1501.54 998.514Z" fill="#F2F2F2"/>
<path d="M864.796 1001.96H766.026C760.241 1001.95 754.694 999.652 750.603 995.56C746.512 991.468 744.211 985.92 744.205 980.133V918.098C744.211 912.311 746.512 906.763 750.603 902.671C754.694 898.579 760.241 896.277 766.026 896.271H864.796C870.582 896.277 876.128 898.579 880.219 902.671C884.31 906.763 886.611 912.311 886.618 918.098V980.133C886.611 985.92 884.31 991.468 880.219 995.56C876.128 999.652 870.582 1001.95 864.796 1001.96Z" fill="#F2F2F2"/>
<path d="M815.411 546.435L810.093 541.636C791.206 524.29 778.736 513.032 778.736 499.008C778.69 496.34 779.179 493.69 780.174 491.214C781.17 488.738 782.652 486.487 784.533 484.594C786.413 482.701 788.655 481.205 791.124 480.194C793.593 479.184 796.24 478.679 798.908 478.709C802.056 478.726 805.163 479.428 808.013 480.766C810.863 482.105 813.387 484.048 815.411 486.46C817.435 484.048 819.96 482.105 822.81 480.766C825.66 479.428 828.767 478.726 831.915 478.709C834.583 478.679 837.23 479.184 839.699 480.194C842.168 481.205 844.409 482.701 846.29 484.594C848.171 486.487 849.653 488.738 850.649 491.214C851.644 493.69 852.133 496.34 852.086 499.008C852.086 513.032 839.617 524.29 820.73 541.636L815.411 546.435Z" fill="#FA5738"/>
<path d="M815.411 764.706L810.093 759.907C791.206 742.562 778.736 731.304 778.736 717.28C778.69 714.612 779.179 711.961 780.174 709.485C781.17 707.009 782.652 704.758 784.533 702.866C786.413 700.973 788.655 699.477 791.124 698.466C793.593 697.455 796.24 696.95 798.908 696.981C802.056 696.998 805.163 697.7 808.013 699.038C810.863 700.376 813.387 702.319 815.411 704.732C817.435 702.319 819.96 700.376 822.81 699.038C825.66 697.7 828.767 696.998 831.915 696.981C834.583 696.95 837.23 697.455 839.699 698.466C842.168 699.477 844.409 700.973 846.29 702.866C848.171 704.758 849.653 707.009 850.649 709.485C851.644 711.961 852.133 714.612 852.086 717.28C852.086 731.304 839.617 742.562 820.73 759.907L815.411 764.706Z" fill="#FA5738"/>
<path d="M398.138 727.988H299.368C293.582 727.981 288.036 725.679 283.945 721.588C279.854 717.496 277.553 711.948 277.546 706.161V644.126C277.553 638.339 279.854 632.791 283.945 628.699C288.036 624.607 293.582 622.305 299.368 622.298H398.138C403.923 622.305 409.47 624.607 413.561 628.699C417.652 632.791 419.953 638.339 419.959 644.126V706.161C419.953 711.948 417.652 717.496 413.561 721.588C409.47 725.679 403.923 727.981 398.138 727.988ZM299.368 626.894C294.8 626.899 290.421 628.716 287.192 631.946C283.962 635.177 282.145 639.557 282.14 644.126V706.161C282.145 710.729 283.962 715.109 287.192 718.34C290.421 721.57 294.8 723.388 299.368 723.393H398.138C402.705 723.388 407.084 721.57 410.314 718.34C413.544 715.109 415.36 710.729 415.365 706.161V644.126C415.36 639.557 413.544 635.177 410.314 631.946C407.084 628.716 402.705 626.899 398.138 626.894H299.368Z" fill="#3F3D56"/>
<path d="M348.753 709.006L343.434 704.207C324.547 686.861 312.078 675.603 312.078 661.579C312.031 658.911 312.52 656.26 313.515 653.785C314.511 651.309 315.993 649.058 317.874 647.165C319.755 645.272 321.996 643.776 324.465 642.765C326.934 641.755 329.581 641.249 332.249 641.28C335.397 641.297 338.504 641.999 341.354 643.337C344.204 644.676 346.729 646.619 348.753 649.031C350.777 646.619 353.301 644.676 356.151 643.337C359.001 641.999 362.108 641.297 365.256 641.28C367.924 641.25 370.571 641.755 373.04 642.765C375.509 643.776 377.751 645.272 379.632 647.165C381.512 649.058 382.994 651.309 383.99 653.785C384.986 656.26 385.474 658.911 385.428 661.579C385.428 675.603 372.958 686.861 354.071 704.207L348.753 709.006Z" fill="#FA5738"/>
<path d="M291.637 1176.61L317.184 1170.53L305.901 1069.08L268.196 1078.05L291.637 1176.61Z" fill="#FFB8B8"/>
<path d="M372.094 1182.54L291.805 1201.64L284.425 1170.61L333.694 1158.89C337.768 1157.92 341.993 1157.76 346.127 1158.43C350.262 1159.09 354.225 1160.56 357.791 1162.76C361.356 1164.96 364.455 1167.83 366.909 1171.23C369.363 1174.62 371.125 1178.46 372.094 1182.54Z" fill="#2F2E41"/>
<path d="M266.56 1111.28L211.076 921.075L280.411 903.872L321.086 1105.32C321.384 1106.79 321.356 1108.31 321.005 1109.78C320.653 1111.24 319.986 1112.61 319.051 1113.79C318.115 1114.97 316.933 1115.93 315.588 1116.61C314.242 1117.28 312.766 1117.65 311.261 1117.7L276.79 1118.72C276.687 1118.73 276.583 1118.73 276.48 1118.73C274.244 1118.73 272.069 1118 270.281 1116.66C268.492 1115.32 267.187 1113.43 266.56 1111.28Z" fill="#2F2E41"/>
<path d="M133.432 1177.25L159.691 1177.25L172.18 1075.93L133.423 1075.94L133.432 1177.25Z" fill="#FFB8B8"/>
<path d="M210.337 1201.64L127.807 1201.64L127.805 1169.75L178.448 1169.74C186.905 1169.74 195.016 1173.1 200.996 1179.08C206.976 1185.06 210.337 1193.18 210.337 1201.64Z" fill="#2F2E41"/>
<path d="M128.821 1137.89C127.856 1136.95 127.086 1135.84 126.556 1134.6C126.025 1133.37 125.746 1132.04 125.732 1130.7L101.808 940.95C101.798 938.213 102.872 935.583 104.795 933.636C106.718 931.689 109.333 930.583 112.069 930.559L165.47 930.172H165.547C168.258 930.179 170.859 931.249 172.791 933.153C174.723 935.056 175.832 937.641 175.881 940.353L178.719 1127.27C178.762 1130 177.724 1132.63 175.833 1134.6C173.941 1136.56 171.349 1137.7 168.623 1137.76L136.206 1140.85C136.156 1140.85 136.106 1140.85 136.056 1140.85C133.348 1140.85 130.748 1139.79 128.821 1137.89Z" fill="#2F2E41"/>
<path d="M140.264 509.857C171.422 509.857 196.681 484.592 196.681 453.426C196.681 422.26 171.422 396.995 140.264 396.995C109.107 396.995 83.8481 422.26 83.8481 453.426C83.8481 484.592 109.107 509.857 140.264 509.857Z" fill="#FFB8B8"/>
<path d="M65.941 931.038C29.2342 902.349 29.6228 868.88 42.1479 824.177C45.6763 811.584 49.4847 798.821 53.5162 785.308C72.2481 722.526 93.479 651.367 85.4188 592.612C83.211 576.52 88.8385 559.593 100.857 546.174C112.877 532.751 129.054 525.315 145.316 525.734C161.55 526.167 177.336 534.468 188.624 548.509C199.858 562.482 205.22 611.615 206.809 618.657C214.105 650.977 218.509 670.485 221.668 701.606C225.403 738.398 270.14 848.402 284.396 866.849C288.179 871.719 290.888 877.335 292.343 883.328C293.799 889.321 293.969 895.555 292.841 901.618C291.79 907.386 289.512 912.861 286.161 917.671C282.811 922.482 278.465 926.516 273.419 929.5C250.284 943.646 224.863 953.653 198.294 959.072C186.769 961.307 175.057 962.435 163.318 962.439C126.895 962.439 92.0922 951.476 65.941 931.038Z" fill="#627AA4"/>
<path d="M300.549 718.435C299.088 715.645 297.033 713.209 294.529 711.299C292.026 709.389 289.133 708.052 286.057 707.381C282.98 706.71 279.794 706.722 276.723 707.416C273.651 708.11 270.769 709.47 268.28 711.398L225.53 686.998L204.37 709.368L265.225 742.977C268.741 746.945 273.591 749.486 278.855 750.117C284.118 750.747 289.431 749.425 293.785 746.4C298.139 743.375 301.232 738.857 302.479 733.703C303.726 728.549 303.039 723.117 300.549 718.435Z" fill="#FFB8B8"/>
<path d="M235.38 734.975L158.759 710.897C148.472 707.641 139.431 701.307 132.855 692.75C126.279 684.192 122.486 673.824 121.986 663.042L118.689 588.575C118.504 584.386 119.165 580.202 120.634 576.275C122.102 572.347 124.347 568.756 127.235 565.716C130.123 562.677 133.594 560.251 137.44 558.584C141.287 556.917 145.43 556.044 149.622 556.015C153.814 555.987 157.969 556.805 161.838 558.42C165.706 560.035 169.21 562.413 172.138 565.414C175.067 568.414 177.36 571.975 178.881 575.882C180.402 579.79 181.12 583.964 180.991 588.155L178.883 656.669L260.43 689.935C261.87 690.522 263.159 691.427 264.201 692.582C265.242 693.737 266.01 695.112 266.447 696.605C266.884 698.098 266.978 699.67 266.723 701.204C266.468 702.739 265.87 704.196 264.974 705.467L246.926 731.069C245.666 732.863 243.868 734.209 241.792 734.912C239.715 735.614 237.47 735.636 235.38 734.975Z" fill="#2F2E41"/>
<path d="M49.3439 523.648C51.9218 508.182 51.8271 492.153 51.7351 476.651C51.7104 472.443 51.6852 468.236 51.711 464.037C51.831 444.522 53.0417 423.838 61.0178 404.796C69.6988 384.073 85.7743 369.108 104.02 364.767C124.591 359.866 146.912 370.699 153.632 388.536C158.074 386.026 163.018 384.534 168.106 384.167C173.195 383.8 178.302 384.568 183.058 386.415C187.814 388.261 192.101 391.141 195.61 394.846C199.118 398.551 201.761 402.988 203.347 407.839C204.933 412.689 205.423 417.831 204.781 422.894C204.14 427.956 202.383 432.813 199.637 437.115C196.892 441.416 193.226 445.054 188.904 447.766C184.582 450.478 179.712 452.197 174.646 452.798L173.784 452.874L167.062 435.4C167.024 435.706 166.988 436.016 166.95 436.328C166.523 439.951 166.08 443.697 163.089 445.861C159.356 448.563 154.706 457.454 156.064 466.461C156.912 471.07 158.174 475.593 159.836 479.974C161.684 484.784 163.025 489.773 163.838 494.861C164.693 501.384 162.986 507.983 159.078 513.274C157.92 514.817 156.459 516.109 154.785 517.07C153.111 518.031 151.259 518.64 149.342 518.862L73.5699 526.699L70.1822 501.383L48.6289 527.935L49.3439 523.648Z" fill="#2F2E41"/>
<path d="M443.318 1203H2.29698C1.68779 1203 1.10354 1202.76 0.672769 1202.33C0.242001 1201.9 0 1201.31 0 1200.7C0 1200.09 0.242001 1199.51 0.672769 1199.08C1.10354 1198.65 1.68779 1198.4 2.29698 1198.4H443.318C443.927 1198.4 444.511 1198.65 444.942 1199.08C445.373 1199.51 445.615 1200.09 445.615 1200.7C445.615 1201.31 445.373 1201.9 444.942 1202.33C444.511 1202.76 443.927 1203 443.318 1203Z" fill="#CCCCCC"/>
</g>
<defs>
<clipPath id="clip0_41_2">
<rect width="1673" height="1203" fill="white"/>
</clipPath>
</defs>
</svg>
