<svg width="892" height="968" viewBox="0 0 892 968" fill="none" xmlns="http://www.w3.org/2000/svg">
<path d="M653.167 898.792C653.167 910.898 636.679 920.448 597.537 929.295C570.577 935.386 524.321 927.395 484.823 930.879C445.324 934.36 396.034 949.613 348.904 949.613C186.224 949.613 64.0464 927.575 64.0464 898.796C64.0464 870.018 195.926 846.687 358.607 846.687C521.287 846.687 653.167 870.013 653.167 898.792Z" fill="white"/>
<path d="M336.244 949.564C336.244 949.564 427.982 937.052 459.209 911.164C493.679 882.588 536.117 931.253 602.998 928.012C602.998 928.012 520.913 943.986 476.944 947.614C432.975 951.243 336.244 949.564 336.244 949.564Z" fill="#FFDE84"/>
<path d="M407.797 43.7815C371.883 47.6219 348.714 66.9186 341.578 104.697C338.571 120.617 341.704 136.866 347.192 152.903C351.366 165.095 360.064 173.032 357.219 184.914C354.662 195.598 344.266 203.377 342.159 214.638C340.822 221.783 344.441 225.893 342.051 233.088C339.025 242.196 327.662 250.786 320.557 257.152C282.702 291.077 281.59 329.274 298.662 376.683C316.933 427.414 367.682 469.159 420.552 480.158C457.57 487.862 487.199 458.804 523.262 459.259C545.449 459.538 566.65 461.717 588.936 458.543C611.434 455.342 623.766 441.614 643.463 432.385C689.859 410.648 745.948 429.521 788.967 395.502C827.138 365.324 839.087 300.653 815.382 257.877C796.41 223.638 760.927 195.544 722.221 188.534C704.766 185.373 684.245 187.138 670.644 173.748C660.356 163.623 660.991 150.652 654.886 138.045C641.451 110.316 612.839 115.975 595.46 95.1702C580.247 76.9631 576.339 52.4753 560.122 34.2051C524.748 -5.64889 453.491 -15.2431 418.026 30.1082C414.442 34.6825 411.543 37.4198 407.797 43.7815Z" fill="#563520"/>
<path d="M674.169 248.283C478.433 144.632 280.649 280.06 170.627 474.936L317.667 586.7C327.882 569.65 338.26 553.698 348.462 539.935C365.512 570.113 392.026 591.954 392.026 591.954L408.536 806.563H842.252C842.252 806.563 898.656 367.156 674.169 248.283Z" fill="#5D7B6B"/>
<path d="M848.466 673.008C650.362 636.328 610.665 470.695 610.665 470.695L592.944 471.384L625.811 226.173C626.306 222.476 623.713 219.077 620.017 218.586C616.32 218.041 612.921 220.684 612.426 224.381L579.249 471.919L364.342 480.276L399.78 249.247C400.347 245.559 397.817 242.111 394.129 241.548C390.455 240.976 386.993 243.511 386.43 247.198L350.592 480.807L334.033 481.451C336.136 523.722 350.412 541.601 350.412 541.601L350.241 542.933C367.296 571.536 392.022 591.949 392.022 591.949L408.532 806.559H842.248C842.257 806.563 849.447 750.492 848.466 673.008Z" fill="#E76B39"/>
<path d="M650.091 581.752C642.55 574.634 618.927 577.65 611.368 557.741C605.686 542.785 613.961 527.364 611.03 512.759C607.793 496.614 601.782 487.501 610.665 470.694C623.348 446.702 648.592 439.984 674.106 436.135C704.137 431.61 736.827 430.597 764.332 446.189C781.944 456.17 808.647 475.467 819.543 492.643C829.2 507.865 818.404 519.355 818.174 534.478C817.927 551.06 829.061 566.498 815.788 582.44C801.106 600.085 761.149 594.718 740.317 593.755C714.303 592.552 680.522 594.52 657.561 583.066C654.751 583.769 657.272 584.53 650.091 581.752Z" fill="#3A5343"/>
<path d="M459.209 585.88C434.753 586.155 392.031 591.954 392.031 591.954C392.031 591.954 341.007 549.934 335.001 501.909C328.999 453.883 353.01 401.36 353.01 375.846" stroke="#3A5343" stroke-miterlimit="10" stroke-linecap="round" stroke-linejoin="round"/>
<path d="M891.921 775.795H137.041V811.065H891.921V775.795Z" fill="#563520"/>
<path d="M346.981 531.434C341.452 510.472 336.428 489.307 335.806 466.971C315.596 442.182 286.768 422.691 259.853 412.543C229.616 401.148 179.619 392.432 171.352 431.678C167.125 451.744 128.203 498.725 160.849 511.219C185.3 515.055 207.01 544.995 225.681 557.408C248.152 572.351 281.905 604.11 310.063 604.317C333.668 604.493 333.65 581.86 345.441 567.079C349.606 561.856 353.095 557.75 355.814 553.748C352.235 546.305 348.944 538.868 346.981 531.434Z" fill="#3A5343"/>
<path d="M320.427 584.151C298.24 522.07 241.728 482.977 172.168 474.485C121.715 563.846 89.7675 665.674 84.878 762.711C84.0676 763.841 83.3562 765.039 82.8069 766.344C67.8144 777.438 50.9759 788.108 36.6993 799.773C20.9324 812.659 30.027 820.398 34.8669 836.805C39.2476 851.671 31.5848 875.281 47.964 882.232C54.3887 884.961 64.6493 884.047 70.3942 885.316C79.6914 887.374 83.7208 889.008 94.0805 887.865C111.063 885.987 126.357 895.199 142.471 883.633C154.969 895.199 169.043 897.594 182.608 887.153C191.311 880.454 206.642 868.428 210.045 857.564C212.639 849.285 209.604 840.433 210.374 830.803C211.342 818.633 217.641 809.958 219.784 798.202C220.563 793.93 220.54 790.116 219.982 786.622C226.289 771.63 271.695 664.944 320.427 584.151Z" fill="#FBCDB4"/>
<path d="M192.365 770.094C192.365 770.094 135.42 723.23 86.7283 738.322C85.9494 746.476 85.2831 754.611 84.8779 762.706C84.8779 762.706 160.849 755.088 192.365 770.094Z" fill="#EEA584"/>
<path d="M172.167 474.485C168.416 481.126 164.792 487.844 161.253 494.615C161.798 494.714 265.962 513.425 306.131 608.725C310.841 600.36 315.618 592.129 320.426 584.156C298.239 522.07 241.727 482.977 172.167 474.485Z" fill="#EEA584"/>
<path d="M142.466 883.628L166.85 828.038" stroke="#EEA584" stroke-miterlimit="10" stroke-linecap="round" stroke-linejoin="round"/>
<path d="M105.25 887.923V823.375" stroke="#EEA584" stroke-miterlimit="10" stroke-linecap="round" stroke-linejoin="round"/>
<path d="M70.3899 885.316L64.0508 828.038" stroke="#EEA584" stroke-miterlimit="10" stroke-linecap="round" stroke-linejoin="round"/>
<path d="M146.045 839.132L150.836 864.548" stroke="#EEA584" stroke-miterlimit="10" stroke-linecap="round" stroke-linejoin="round"/>
<path d="M203.513 786.672C175.693 786.672 153.142 809.223 153.142 837.043C153.142 864.862 175.693 887.414 203.513 887.414H544.667V786.672H203.513Z" fill="#EFB563"/>
<path d="M154.587 825.261C153.677 829.047 153.146 832.977 153.146 837.043C153.146 864.862 175.698 887.414 203.517 887.414H544.671V863.85H203.517C179.759 863.85 159.899 847.385 154.587 825.261Z" fill="#D69135"/>
<path d="M544.667 887.414C572.486 887.414 595.038 864.862 595.038 837.043C595.038 809.224 572.486 786.672 544.667 786.672C516.847 786.672 494.295 809.224 494.295 837.043C494.295 864.862 516.847 887.414 544.667 887.414Z" fill="#FFDE84"/>
<path d="M793.659 573.481L793.646 573.467C743.973 522.786 631.254 547.589 631.254 547.589H631.249C631.727 635.076 624.127 717.369 610.327 770.473C569.807 799.738 543.577 797.95 545.927 834.387C549.547 890.489 571.532 904.023 602.867 899.373C613.313 897.824 616.378 899.084 627.215 901.835C635.765 904.005 646.354 904.946 653.175 898.26C665.291 904.019 684.484 904.766 694.308 893.479C710.624 912.127 740.015 875.641 734.828 858.65C731.339 847.223 723.964 847.538 733.126 834.851C743.914 819.912 753.837 799.368 749.141 780.342C772.404 711.943 795.69 639.11 793.659 573.481Z" fill="#FBCDB4"/>
<path d="M793.641 573.467C743.968 522.786 631.249 547.589 631.249 547.589H631.245C631.285 555.368 631.245 563.081 631.159 570.762C658.483 569.483 748.875 567.853 793.254 598.788C793.758 590.252 793.916 581.81 793.659 573.481C793.65 573.477 793.641 573.467 793.641 573.467Z" fill="#EEA584"/>
<path d="M714.789 769.703C714.789 769.703 663.445 737.867 616.77 741.073C614.798 751.608 612.66 761.491 610.323 770.473C610.323 770.473 680.441 759.068 714.789 769.703Z" fill="#EEA584"/>
<path d="M606.019 898.968C606.019 898.968 586.308 867.645 584.057 848.133" stroke="#EEA584" stroke-miterlimit="10" stroke-linecap="round" stroke-linejoin="round"/>
<path d="M653.166 898.261C653.166 898.261 632.487 865.394 631.159 848.137" stroke="#EEA584" stroke-miterlimit="10" stroke-linecap="round" stroke-linejoin="round"/>
<path d="M694.299 893.479L674.107 848.137" stroke="#EEA584" stroke-miterlimit="10" stroke-linecap="round" stroke-linejoin="round"/>
<path d="M728.917 842.887L719.129 855.471" stroke="#EEA584" stroke-miterlimit="10" stroke-linecap="round" stroke-linejoin="round"/>
<path d="M714.789 842.887L719.129 862.391" stroke="#EEA584" stroke-miterlimit="10" stroke-linecap="round" stroke-linejoin="round"/>
<path d="M606.023 221.598C584.178 215.939 562.441 213.048 540.934 212.607L529.701 158.931H458.282L462 222.053C443.96 226.713 426.199 232.953 408.829 240.737C408.766 240.994 373.423 385.534 475.507 391.158C577.677 396.781 618.598 273.77 606.023 221.598Z" fill="#FBCDB4"/>
<path d="M534.073 179.813L529.701 158.927H458.282L462.001 222.048C461.541 222.165 461.087 222.314 460.627 222.435V252.709C516.901 240.724 534.073 179.813 534.073 179.813Z" fill="#EEA584"/>
<path d="M568.155 132.323C567.362 125.327 563.297 119.555 557.7 116.174C553.788 122.526 549.304 128.487 548.642 136.699C542.911 132.742 535.329 128.393 528.841 125.52C514.488 119.168 495.403 115.246 479.753 116.682C461.28 118.38 429.413 120.658 424.1 96.3501C416.802 99.3441 408.144 113.364 404.718 120.397C401.423 127.159 398.87 135.083 396.844 142.624C398.613 181.771 430.507 213.287 470.217 213.913C505.96 214.476 536.193 189.83 544.072 156.41C545.657 156.586 547.278 156.626 548.93 156.442C560.906 155.091 569.51 144.29 568.155 132.323Z" fill="#FBCDB4"/>
<path d="M433.811 147.896C434.041 151.394 431.389 154.42 427.891 154.65C424.393 154.879 421.367 152.227 421.137 148.729C420.908 145.231 423.56 142.205 427.058 141.976C430.556 141.746 433.582 144.393 433.811 147.896Z" fill="#2D2327"/>
<path d="M496.888 143.754C497.118 147.252 494.466 150.273 490.967 150.503C487.469 150.733 484.448 148.081 484.214 144.582C483.984 141.084 486.636 138.059 490.135 137.829C493.637 137.608 496.663 140.256 496.888 143.754Z" fill="#2D2327"/>
<path d="M448.088 186.35C448.088 186.35 460.924 193.103 470.325 183.243" stroke="#EEA584" stroke-width="0.981" stroke-miterlimit="10" stroke-linecap="round" stroke-linejoin="round"/>
<path d="M760.303 859.987C755.746 860.491 740.803 863.868 740.317 855.548C740.029 850.613 750.812 851.496 754.288 851.568C752.757 849.537 749.74 841.591 753.18 840.555C754.963 840.019 759.357 843.333 760.793 844.161C762.581 845.197 763.927 846.768 765.579 847.844C767.948 844.999 771.702 838.853 775.795 838.502C780.711 838.079 778.402 844.233 777.731 846.953C780.014 843.716 787.226 839.808 784.655 846.768C783.057 851.104 779.428 853.778 775.43 855.705C770.725 857.97 765.516 858.298 760.303 859.987Z" fill="#5D7B6B"/>
<path d="M762.648 853.796C751.032 858.551 743.149 871.157 746.12 884.943C749.263 899.526 768.83 905.725 780.698 911.574C809.845 925.936 811.084 874.264 797.356 859.613C786.906 848.461 774.683 853.423 762.648 853.796Z" fill="#E76B39"/>
<path d="M785.254 913.334C809.922 920.317 810.327 873.457 797.356 859.613C790.513 852.31 782.909 851.923 775.093 852.63C781.999 855.489 787.469 858.573 791.661 865.628C796.623 873.975 796.339 886.662 794.236 895.73C792.697 902.348 788.338 907.548 785.254 913.334Z" fill="#D1532D"/>
<path d="M755.521 870.396C755.602 871.53 755.034 874.601 756.07 875.974C757.772 878.234 759.735 876.929 760.023 874.624C760.248 872.8 756.957 866.074 755.521 869.833" fill="#FFDE84"/>
<path d="M769.87 878.275C770.104 879.815 770.252 882.358 771.441 883.633C773.035 885.343 774.8 884.997 775.237 882.615C775.682 880.179 772.549 874.57 769.919 876.636C769.82 877.131 769.631 877.518 769.591 877.996" fill="#FFDE84"/>
<path d="M773.246 863.08C771.296 865.664 775.065 869.698 776.6 866.29C777.847 863.512 772.985 858.776 772.967 862.796" fill="#FFDE84"/>
<path d="M769.028 895.158C769.924 896.572 770.136 899.161 772.009 900.21C774.67 901.7 775.931 899.755 775.197 897.27C774.422 894.65 767.997 891.07 769.028 894.596" fill="#FFDE84"/>
<path d="M787.316 892.628C787.316 893.992 786.825 896.685 787.865 897.707C790.197 900.003 791.125 896.113 791.125 894.348C791.125 890.706 787.113 888.436 787.316 892.628Z" fill="#FFDE84"/>
<path d="M850.272 817.724C847.498 814.072 836.923 802.992 843.811 798.296C847.899 795.514 852.68 805.221 854.405 808.237C855.359 805.878 860.632 799.21 863.283 801.628C864.661 802.88 864.076 808.354 864.098 810.016C864.13 812.082 863.468 814.045 863.396 816.013C867.052 816.58 874.255 816.648 876.659 819.975C879.545 823.973 873.085 825.157 870.406 825.976C874.359 826.274 881.414 830.452 874.12 831.82C869.577 832.676 865.422 830.938 861.712 828.498C857.354 825.63 854.396 821.33 850.272 817.724Z" fill="#5D7B6B"/>
<path d="M856.786 816.557C846.737 809.034 831.871 808.746 821.569 818.381C810.674 828.569 815.406 848.541 816.486 861.729C819.143 894.118 864.107 868.631 869.627 849.32C873.823 834.625 863.287 826.688 856.786 816.557Z" fill="#E76B39"/>
<path d="M817.319 866.537C824 891.291 864.413 867.559 869.626 849.316C872.377 839.695 868.798 832.973 864.179 826.629C865.273 834.022 865.439 840.298 861.54 847.52C856.925 856.065 845.899 862.341 837.039 865.196C830.569 867.28 823.87 866.213 817.319 866.537Z" fill="#D1532D"/>
<path d="M838.88 818.971C837.948 819.624 835.022 820.718 834.378 822.307C833.316 824.928 835.445 825.941 837.566 825.004C839.245 824.261 843.324 817.981 839.362 818.683" fill="#FFDE84"/>
<path d="M839.493 835.328C838.291 836.318 836.188 837.754 835.702 839.429C835.054 841.676 836.256 843.009 838.525 842.162C840.843 841.293 844.045 835.724 840.925 834.526C840.452 834.693 840.024 834.733 839.587 834.941" fill="#FFDE84"/>
<path d="M854.264 830.42C851.045 830.073 849.523 835.381 853.229 834.945C856.254 834.589 857.821 827.98 854.359 830.033" fill="#FFDE84"/>
<path d="M824.573 843.279C823.821 844.774 821.709 846.286 821.768 848.429C821.858 851.477 824.172 851.563 825.928 849.654C827.778 847.642 827.549 840.294 825.054 842.991" fill="#FFDE84"/>
<path d="M836.143 857.672C834.977 858.375 832.41 859.334 832.068 860.752C831.298 863.935 835.112 862.728 836.625 861.824C839.749 859.951 839.632 855.34 836.143 857.672Z" fill="#FFDE84"/>
<path d="M727.333 926.138C724.474 924.67 718.648 927.02 714.88 929.911C714.762 929.434 714.618 928.938 714.456 928.425C713.029 923.833 711.305 919.259 709.945 914.545C707.996 907.796 700.333 904.442 697.721 913.117C697.163 914.972 697.172 916.76 697.465 918.489C692.881 914.914 687.852 912.388 683.003 912.654C671.23 913.298 671.671 920.276 678.447 926.777C673.378 926.768 661.496 927.169 657.948 931.428C653.541 936.718 658.223 940.617 664.211 939.852C659.893 942.193 641.317 949.32 648.458 957.726C653.095 963.187 670.289 954.669 675.404 952.553C671.775 957.694 669.164 966.717 678.587 967.514C686.92 968.221 692.22 957.604 695.835 951.895C693.12 969.711 706.154 969.315 711.723 954.835C714.591 947.375 713.34 940.82 720.827 936.588C723.897 934.854 737.445 931.325 727.333 926.138Z" fill="#5D7B6B"/>
<path d="M807.099 928.043C807.607 921.627 807.967 911.884 813.946 907.985C820.925 903.438 820.817 910.975 819.358 915.765C822.406 911.844 829.385 907.265 834.414 907.314C841.658 907.382 837.961 912.609 837.088 916.751C839.447 914.225 844.863 913.275 848.213 913.942C853.823 915.058 851.428 917.481 849.033 920.785C853.562 919.065 874.488 922.122 868.712 929.902C866.731 932.568 857.321 932.442 854.273 932.604C857.398 935.733 864.12 946.236 858.672 949.64C854.516 952.238 848.132 945.678 845.561 943.098C848.258 945.575 849.969 952.868 845.26 953.012C839.794 953.184 834.049 945.35 830.326 942.32C831.784 946.984 831.271 952.116 825.292 948.411C820.033 945.151 816.909 939.389 813.019 934.922C805.649 926.476 790.125 936.894 781.89 940.181C780.549 939.299 779.5 937.925 778.698 936.597C782.278 933.139 788.41 930.803 793.286 929.713C797.175 928.844 802.664 929.763 805.865 928.061C805.455 928.277 805.037 928.263 807.099 928.043Z" fill="#5D7B6B"/>
<path d="M62.5336 917.944C62.2904 924.374 62.3399 934.125 56.5275 938.267C49.7471 943.103 49.5401 935.571 50.7962 930.717C47.9147 934.76 41.1299 939.627 36.1099 939.789C28.8702 940.023 32.346 934.648 33.0438 930.474C30.7927 933.094 25.4214 934.274 22.0447 933.747C16.3944 932.865 18.686 930.348 20.9371 926.944C16.4844 928.849 -4.55012 926.67 0.893105 918.656C2.75704 915.909 12.1668 915.644 15.2059 915.351C11.9552 912.352 4.79662 902.137 10.1003 898.513C14.1433 895.744 20.7932 902.029 23.4765 904.5C20.6761 902.141 18.6635 894.924 23.3639 894.582C28.8161 894.186 34.8852 901.768 38.7302 904.64C37.0778 900.039 37.375 894.888 43.5026 898.346C48.8918 901.385 52.2549 907.013 56.3295 911.308C64.0464 919.439 79.1198 908.381 87.2104 904.757C88.5881 905.581 89.6956 906.914 90.5511 908.206C87.1203 911.808 81.0918 914.401 76.2654 915.693C72.416 916.724 66.8917 916.04 63.7671 917.868C64.1678 917.638 64.5821 917.634 62.5336 917.944Z" fill="#5D7B6B"/>
</svg>
